<svg width="115" height="97" viewBox="0 0 115 97" fill="none" xmlns="http://www.w3.org/2000/svg">
<g filter="url(#filter0_i_66_3)">
<path d="M2.48 96.04C1.84 94.36 1.32 92.2 0.92 89.56C0.52 86.84 0.28 84.04 0.2 81.16C0.2 78.2 0.28 75.4 0.44 72.76C0.68 70.04 1.08 67.84 1.64 66.16C3.96 65.28 6.52 64.28 9.32 63.16C12.12 62.04 15 60.28 17.96 57.88C20.92 55.4 23.76 51.84 26.48 47.2C29.28 42.48 31.72 36.16 33.8 28.24L30.2 27.52C28.76 32.96 27 37.76 24.92 41.92C22.84 46.08 20 49.44 16.4 52C12.88 54.56 8.2 56.24 2.36 57.04C1.56 51.92 0.96 46.52 0.56 40.84C0.24 35.08 0.0800001 29.52 0.0800001 24.16C0.16 18.8 0.36 14.08 0.68 9.99999C1.08 5.84 1.52 2.8 2 0.879997C8.8 1.11999 15.28 1.35999 21.44 1.6C27.6 1.76 33.76 1.92 39.92 2.08C46.16 2.16 52.64 2.19999 59.36 2.19999C64 2.19999 68.96 2.16 74.24 2.08C79.6 2 84.8 1.92 89.84 1.84C94.96 1.68 99.48 1.56 103.4 1.48C107.32 1.31999 110.2 1.15999 112.04 0.999996C112.84 2.91999 113.44 5.28 113.84 8.08C114.24 10.88 114.44 13.8 114.44 16.84C114.52 19.8 114.4 22.6 114.08 25.24C113.76 27.8 113.24 29.8 112.52 31.24C105.88 32.76 100.12 36.64 95.24 42.88C90.44 49.12 86.52 58.08 83.48 69.76L87.08 70.6C88.68 64.76 90.56 59.56 92.72 55C94.96 50.44 97.72 46.88 101 44.32C104.36 41.76 108.48 40.64 113.36 40.96C113.84 44.24 114.2 48 114.44 52.24C114.68 56.4 114.8 60.72 114.8 65.2C114.8 69.68 114.72 74 114.56 78.16C114.4 82.24 114.16 85.88 113.84 89.08C113.52 92.2 113.16 94.52 112.76 96.04C106.68 95.96 100.92 95.76 95.48 95.44C90.12 95.2 84.56 94.92 78.8 94.6C73.04 94.36 66.56 94.24 59.36 94.24C43.68 94.24 31.24 94.44 22.04 94.84C12.84 95.24 6.32 95.64 2.48 96.04Z" fill="white"/>
</g>
<defs>
<filter id="filter0_i_66_3" x="0.0799866" y="0.879993" width="114.72" height="99.16" filterUnits="userSpaceOnUse" color-interpolation-filters="sRGB">
<feFlood flood-opacity="0" result="BackgroundImageFix"/>
<feBlend mode="normal" in="SourceGraphic" in2="BackgroundImageFix" result="shape"/>
<feColorMatrix in="SourceAlpha" type="matrix" values="0 0 0 0 0 0 0 0 0 0 0 0 0 0 0 0 0 0 127 0" result="hardAlpha"/>
<feOffset dy="4"/>
<feGaussianBlur stdDeviation="2"/>
<feComposite in2="hardAlpha" operator="arithmetic" k2="-1" k3="1"/>
<feColorMatrix type="matrix" values="0 0 0 0 0 0 0 0 0 0 0 0 0 0 0 0 0 0 0.25 0"/>
<feBlend mode="normal" in2="shape" result="effect1_innerShadow_66_3"/>
</filter>
</defs>
</svg>
